<?xml version="1.0" encoding="UTF-8"?>
<svg version="1.1" xmlns="http://www.w3.org/2000/svg" width="80" height="80">
<path d="M0 0 C3.16808352 1.43195503 6.09294025 3.09706959 9 5 C9 5.66 9 6.32 9 7 C11.87659826 7.1356886 14.74673463 7.23440753 17.625 7.3125 C18.83736328 7.3753418 18.83736328 7.3753418 20.07421875 7.43945312 C24.33674387 7.52608981 27.07595188 7.40308663 30.4140625 4.59375 C31.26742187 3.7378125 32.12078125 2.881875 33 2 C38.15811027 -1.39966359 42.98482321 -1.85794915 49 -1 C53.88293213 0.72338781 57.13933901 3.73633968 60 8 C61.43787799 15.56621314 60.23656281 22.32727663 56.4375 28.96484375 C54.60389053 31.56079629 52.73373182 33.37453783 50 35 C49.34 35 48.68 35 48 35 C48.061875 36.03125 48.12375 37.0625 48.1875 38.125 C47.98267469 42.35805644 47.28056192 44.46119702 45 48 C43.36395804 49.37073786 41.69321939 50.70055256 40 52 C37.9125783 54.26957878 35.96625377 56.62220474 34 59 C38.29 59.66 42.58 60.32 47 61 C47 61.33 47 61.66 47 62 C28.85 62 10.7 62 -8 62 C-8 61.67 -8 61.34 -8 61 C-6.4176994 60.66179834 -4.83410625 60.32964061 -3.25 60 C-1.92742188 59.7215625 -1.92742188 59.7215625 -0.578125 59.4375 C2 59 2 59 6 59 C5.14352003 56.58031369 5.14352003 56.58031369 3 54 C1.36823618 53.31940107 -0.27996114 52.67766906 -1.9375 52.0625 C-5.66662499 50.37977984 -6.7733665 49.50616818 -8.47265625 45.7109375 C-9.14256705 43.25035259 -9.74891932 40.771313 -10.28125 38.27734375 C-10.89340304 35.48605896 -11.58273638 33.44966686 -13 31 C-13.66 31 -14.32 31 -15 31 C-19.24085222 23.8863124 -20.91888325 18.39936945 -20 10 C-18.68490165 6.02464556 -16.40308678 3.38389218 -13.375 0.5 C-8.61723398 -1.61456268 -4.98483136 -1.32630789 0 0 Z " fill="#8F979F" transform="translate(20,10)"/>
<path d="M0 0 C3.16808352 1.43195503 6.09294025 3.09706959 9 5 C9 5.66 9 6.32 9 7 C11.87659826 7.1356886 14.74673463 7.23440753 17.625 7.3125 C18.83736328 7.3753418 18.83736328 7.3753418 20.07421875 7.43945312 C24.33674387 7.52608981 27.07595188 7.40308663 30.4140625 4.59375 C31.26742187 3.7378125 32.12078125 2.881875 33 2 C38.15811027 -1.39966359 42.98482321 -1.85794915 49 -1 C53.87999333 0.72235059 57.15004837 3.73113628 60 8 C61.37023318 15.86876553 60.20236785 22.30247625 56 29 C55.505 28.01 55.505 28.01 55 27 C55.33 26.34 55.66 25.68 56 25 C56.09720427 23.06449136 56.12977914 21.12544208 56.125 19.1875 C56.12757812 18.14980469 56.13015625 17.11210937 56.1328125 16.04296875 C56.00974267 13.22322186 55.74871151 10.71951341 55 8 C53.25 6.5 53.25 6.5 51 6 C50.319375 6.185625 49.63875 6.37125 48.9375 6.5625 C47.9784375 6.7790625 47.9784375 6.7790625 47 7 C46.566875 6.525625 46.13375 6.05125 45.6875 5.5625 C43.96716087 3.65153776 43.96716087 3.65153776 40.625 3.6875 C37.20798894 3.98206992 34.96280868 4.30696647 32 6 C30.65589738 8.01735205 30.65589738 8.01735205 30 10 C30.66 10 31.32 10 32 10 C32.495 11.98 32.495 11.98 33 14 C34.65 14 36.3 14 38 14 C38 13.34 38 12.68 38 12 C41.8503105 9.43312633 43.58569763 10.16711276 48 11 C49.13508688 14.3515741 48.87309359 16.35675676 47.75 19.6875 C47.37101562 20.86892578 47.37101562 20.86892578 46.984375 22.07421875 C46 24 46 24 43 25 C42.505 23.515 42.505 23.515 42 22 C40.68 22.33 39.36 22.66 38 23 C37.505 21.515 37.505 21.515 37 20 C36.505 20.495 36.505 20.495 36 21 C36.495 22.485 36.495 22.485 37 24 C38.27075812 31.27797834 38.27075812 31.27797834 37.0625 34.5 C36.711875 34.995 36.36125 35.49 36 36 C35.67 35.34 35.34 34.68 35 34 C32.97536745 33.34786708 32.97536745 33.34786708 31 33 C31 33.66 31 34.32 31 35 C26.71 35 22.42 35 18 35 C18.33 34.01 18.66 33.02 19 32 C20.7015625 32.2784375 20.7015625 32.2784375 22.4375 32.5625 C23.613125 32.706875 24.78875 32.85125 26 33 C27.35618499 31.87465895 27.35618499 31.87465895 27.0625 28.9375 C27.041875 27.968125 27.02125 26.99875 27 26 C26.34 25.67 25.68 25.34 25 25 C25 25.66 25 26.32 25 27 C25.66 27 26.32 27 27 27 C27 27.66 27 28.32 27 29 C25.68 28.67 24.36 28.34 23 28 C23 27.01 23 26.02 23 25 C21.35 26.32 19.7 27.64 18 29 C18 28.34 18 27.68 18 27 C17.34 27 16.68 27 16 27 C15.67 29.31 15.34 31.62 15 34 C14.01 34 13.02 34 12 34 C12 31.03 12 28.06 12 25 C10.06177404 25.03305502 8.12414332 25.10249905 6.1875 25.1875 C5.10855469 25.22230469 4.02960937 25.25710937 2.91796875 25.29296875 C-0.21903157 25.70383602 -0.21903157 25.70383602 -1.69921875 28.55078125 C-2.12847656 29.35902344 -2.55773437 30.16726562 -3 31 C-3.99 31 -4.98 31 -6 31 C-5.49287967 27.28111761 -4.88391785 24.26545761 -3 21 C-2.01 21 -1.02 21 0 21 C0 19.68 0 18.36 0 17 C-2.31 17 -4.62 17 -7 17 C-7.33 17.66 -7.66 18.32 -8 19 C-9.32 18.67 -10.64 18.34 -12 18 C-12 16.35 -12 14.7 -12 13 C-8.61981469 11.95994298 -5.5219721 11.91995518 -2 12 C-2.72083677 8.76550289 -2.72083677 8.76550289 -5.75 7.3125 C-9.79286069 5.65708224 -9.79286069 5.65708224 -14 6 C-15.8624438 8.40858714 -15.8624438 8.40858714 -17 11 C-17.99 10.67 -18.98 10.34 -20 10 C-15.43378463 0.86756927 -10.24407012 -2.72562703 0 0 Z M32 20 C32.66 21.32 33.32 22.64 34 24 C33.67 22.68 33.34 21.36 33 20 C32.67 20 32.34 20 32 20 Z " fill="#8B929A" transform="translate(20,10)"/>
<path d="M0 0 C8.6961039 0.42077922 8.6961039 0.42077922 12 4 C12 4.99 12 5.98 12 7 C8.94152152 7.54372951 6.11227195 8 3 8 C3 9.65 3 11.3 3 13 C3.99 13.33 4.98 13.66 6 14 C6.33 13.01 6.66 12.02 7 11 C9.31 11.33 11.62 11.66 14 12 C14 13.32 14 14.64 14 16 C12.66666667 17.33333333 11.33333333 18.66666667 10 20 C8.73215876 23.13350717 8.73215876 23.13350717 8 26 C8.99 26 9.98 26 11 26 C11.12375 25.38125 11.2475 24.7625 11.375 24.125 C12 22 12 22 14 20 C16.8203125 19.8046875 16.8203125 19.8046875 20.125 19.875 C21.22070312 19.89304687 22.31640625 19.91109375 23.4453125 19.9296875 C24.28835937 19.95289062 25.13140625 19.97609375 26 20 C26 22.97 26 25.94 26 29 C26.99 29 27.98 29 29 29 C29.33 26.69 29.66 24.38 30 22 C30.598125 21.855625 31.19625 21.71125 31.8125 21.5625 C33.56150404 21.1127561 35.28677023 20.57107659 37 20 C37 20.99 37 21.98 37 23 C38.32 23.33 39.64 23.66 41 24 C41 23.34 41 22.68 41 22 C40.34 22 39.68 22 39 22 C39 21.34 39 20.68 39 20 C39.99 20.33 40.98 20.66 42 21 C42.125 23.875 42.125 23.875 42 27 C41.34 27.66 40.68 28.32 40 29 C37.27130593 28.96712417 34.7033382 28.43602229 32 28 C31.525625 28.804375 31.05125 29.60875 30.5625 30.4375 C29 33 29 33 28 34 C26.33382885 34.04063832 24.66611905 34.042721 23 34 C23 34.66 23 35.32 23 36 C21.02 35.67 19.04 35.34 17 35 C17.433125 35.680625 17.86625 36.36125 18.3125 37.0625 C20 40 20 40 21.4375 43.625 C22.97151415 46.93847056 23.91394135 48.19093113 27 50 C26.01 50.66 25.02 51.32 24 52 C28.50353262 53.75747614 32.17639811 54.19294408 37 54 C36.67 54.99 36.34 55.98 36 57 C26.1 57 16.2 57 6 57 C6 56.67 6 56.34 6 56 C7.5823006 55.66179834 9.16589375 55.32964061 10.75 55 C12.07257812 54.7215625 12.07257812 54.7215625 13.421875 54.4375 C16 54 16 54 20 54 C19.14352003 51.58031369 19.14352003 51.58031369 17 49 C15.36823618 48.31940107 13.72003886 47.67766906 12.0625 47.0625 C8.33337501 45.37977984 7.2266335 44.50616818 5.52734375 40.7109375 C4.85743295 38.25035259 4.25108068 35.771313 3.71875 33.27734375 C3.10659696 30.48605896 2.41726362 28.44966686 1 26 C0.34 26 -0.32 26 -1 26 C-4.2701997 20.51450373 -6.15781066 16.73112506 -6.0625 10.25 C-6.05347656 9.45078125 -6.04445313 8.6515625 -6.03515625 7.828125 C-6.02355469 7.22484375 -6.01195312 6.6215625 -6 6 C-5.01 6 -4.02 6 -3 6 C-2.87625 5.38125 -2.7525 4.7625 -2.625 4.125 C-2 2 -2 2 0 0 Z " fill="#6B6C78" transform="translate(6,15)"/>
<path d="M0 0 C0.33 0 0.66 0 1 0 C1.28951652 5.59731932 1.18452849 9.1683016 -2 14 C-3.63604196 15.37073786 -5.30678061 16.70055256 -7 18 C-9.0874217 20.26957878 -11.03374623 22.62220474 -13 25 C-8.71 25.66 -4.42 26.32 0 27 C0 27.33 0 27.66 0 28 C-8.25 28 -16.5 28 -25 28 C-24.67 27.01 -24.34 26.02 -24 25 C-24.59167969 25.10699219 -25.18335937 25.21398437 -25.79296875 25.32421875 C-32.32761578 26.31560892 -32.32761578 26.31560892 -36.0625 24.5625 C-36.701875 24.046875 -37.34125 23.53125 -38 23 C-37.01 22.34 -36.02 21.68 -35 21 C-35.7425 20.525625 -36.485 20.05125 -37.25 19.5625 C-40.83475962 16.22215581 -42.41344896 12.59124825 -44 8 C-44 7.34 -44 6.68 -44 6 C-43.11957031 6.01160156 -42.23914063 6.02320313 -41.33203125 6.03515625 C-40.17058594 6.04417969 -39.00914063 6.05320312 -37.8125 6.0625 C-36.66394531 6.07410156 -35.51539063 6.08570313 -34.33203125 6.09765625 C-30.69531625 6.08406102 -30.69531625 6.08406102 -26 5 C-26.33 9.95 -26.66 14.9 -27 20 C-25.123125 19.87625 -23.24625 19.7525 -21.3125 19.625 C-20.25675781 19.55539063 -19.20101562 19.48578125 -18.11328125 19.4140625 C-15.06489932 19.00863153 -12.73916461 18.3845232 -10 17 C-9.25723969 15.02919843 -9.25723969 15.02919843 -9 13 C-8.34 12.34 -7.68 11.68 -7 11 C-7.66 11 -8.32 11 -9 11 C-8.67 9.68 -8.34 8.36 -8 7 C-7.34 7 -6.68 7 -6 7 C-5.34 6.34 -4.68 5.68 -4 5 C-3.01 5 -2.02 5 -1 5 C-0.67 3.35 -0.34 1.7 0 0 Z " fill="#9499A1" transform="translate(67,44)"/>
<path d="M0 0 C2.97 0 5.94 0 9 0 C9 2.97 9 5.94 9 9 C9.99 9 10.98 9 12 9 C12.33 6.69 12.66 4.38 13 2 C13.598125 1.855625 14.19625 1.71125 14.8125 1.5625 C16.56150404 1.1127561 18.28677023 0.57107659 20 0 C20 0.99 20 1.98 20 3 C21.32 3.33 22.64 3.66 24 4 C24 3.34 24 2.68 24 2 C23.34 2 22.68 2 22 2 C22 1.34 22 0.68 22 0 C23.485 0.495 23.485 0.495 25 1 C25.125 3.875 25.125 3.875 25 7 C24.34 7.66 23.68 8.32 23 9 C20.27130593 8.96712417 17.7033382 8.43602229 15 8 C14.525625 8.804375 14.05125 9.60875 13.5625 10.4375 C12 13 12 13 11 14 C9.33382885 14.04063832 7.66611905 14.042721 6 14 C6 14.66 6 15.32 6 16 C3.03 15.505 3.03 15.505 0 15 C0.433125 15.680625 0.86625 16.36125 1.3125 17.0625 C3 20 3 20 4.4375 23.625 C5.97151415 26.93847056 6.91394135 28.19093113 10 30 C6.68866471 31.08973034 5.40027378 31.19565203 2.2109375 29.63671875 C1.27507813 28.99347656 0.33921875 28.35023437 -0.625 27.6875 C-1.56601562 27.05199219 -2.50703125 26.41648437 -3.4765625 25.76171875 C-4.30929688 25.18035156 -5.14203125 24.59898438 -6 24 C-6.99 23.34 -7.98 22.68 -9 22 C-9.328125 19.79296875 -9.328125 19.79296875 -9.25 17.1875 C-9.22421875 16.29675781 -9.1984375 15.40601563 -9.171875 14.48828125 C-8.99458518 11.92160819 -8.66357916 9.48842185 -8 7 C-7.01 7 -6.02 7 -5 7 C-4.814375 6.0409375 -4.814375 6.0409375 -4.625 5.0625 C-4.41875 4.381875 -4.2125 3.70125 -4 3 C-3.34 2.67 -2.68 2.34 -2 2 C-1.34 2.33 -0.68 2.66 0 3 C0 2.01 0 1.02 0 0 Z " fill="#343247" transform="translate(23,35)"/>
<path d="M0 0 C1.13508688 3.3515741 0.87309359 5.35675676 -0.25 8.6875 C-0.50265625 9.47511719 -0.7553125 10.26273438 -1.015625 11.07421875 C-2 13 -2 13 -5 14 C-5.33 13.01 -5.66 12.02 -6 11 C-7.32 11.33 -8.64 11.66 -10 12 C-10.33 11.01 -10.66 10.02 -11 9 C-11.33 9.33 -11.66 9.66 -12 10 C-11.67 10.99 -11.34 11.98 -11 13 C-9.72924188 20.27797834 -9.72924188 20.27797834 -10.9375 23.5 C-11.4634375 24.2425 -11.4634375 24.2425 -12 25 C-12.33 24.34 -12.66 23.68 -13 23 C-15.02463255 22.34786708 -15.02463255 22.34786708 -17 22 C-17 22.66 -17 23.32 -17 24 C-21.29 24 -25.58 24 -30 24 C-29.67 23.01 -29.34 22.02 -29 21 C-27.865625 21.185625 -26.73125 21.37125 -25.5625 21.5625 C-24.386875 21.706875 -23.21125 21.85125 -22 22 C-20.65595225 20.88163776 -20.65595225 20.88163776 -20.875 18 C-20.65595225 15.11836224 -20.65595225 15.11836224 -22 14 C-23.51928038 13.92820036 -25.04167482 13.91607993 -26.5625 13.9375 C-27.80193359 13.95103516 -27.80193359 13.95103516 -29.06640625 13.96484375 C-29.70449219 13.97644531 -30.34257813 13.98804688 -31 14 C-31.125 11.625 -31.125 11.625 -31 9 C-29 7 -29 7 -26.6171875 6.8046875 C-25.71226563 6.82789063 -24.80734375 6.85109375 -23.875 6.875 C-22.50988281 6.90207031 -22.50988281 6.90207031 -21.1171875 6.9296875 C-20.41851562 6.95289063 -19.71984375 6.97609375 -19 7 C-19 4.69 -19 2.38 -19 0 C-17.68 0.33 -16.36 0.66 -15 1 C-15 1.66 -15 2.32 -15 3 C-13.35 3 -11.7 3 -10 3 C-10 2.34 -10 1.68 -10 1 C-6.1496895 -1.56687367 -4.41430237 -0.83288724 0 0 Z M-16 9 C-15.34 10.32 -14.68 11.64 -14 13 C-14.33 11.68 -14.66 10.36 -15 9 C-15.33 9 -15.66 9 -16 9 Z " fill="#9AA3A9" transform="translate(68,21)"/>
<path d="M0 0 C7.28850325 -0.48590022 7.28850325 -0.48590022 10.5625 1.75 C11.036875 2.4925 11.51125 3.235 12 4 C11.67 5.32 11.34 6.64 11 8 C7.7 8 4.4 8 1 8 C0.34 9.98 -0.32 11.96 -1 14 C3.455 13.505 3.455 13.505 8 13 C7.67 13.99 7.34 14.98 7 16 C7.66 16 8.32 16 9 16 C9 16.66 9 17.32 9 18 C7.68 17.67 6.36 17.34 5 17 C5 16.01 5 15.02 5 14 C3.35 15.32 1.7 16.64 0 18 C0 17.34 0 16.68 0 16 C-0.66 16 -1.32 16 -2 16 C-2.33 18.31 -2.66 20.62 -3 23 C-3.99 23 -4.98 23 -6 23 C-6 20.03 -6 17.06 -6 14 C-8.31 14 -10.62 14 -13 14 C-12.34 13.01 -11.68 12.02 -11 11 C-11.66 10.34 -12.32 9.68 -13 9 C-12.34 9 -11.68 9 -11 9 C-10.896875 8.38125 -10.79375 7.7625 -10.6875 7.125 C-10 5 -10 5 -7 3 C-3.8125 2.875 -3.8125 2.875 -1 3 C-0.67 2.01 -0.34 1.02 0 0 Z " fill="#70757F" transform="translate(38,21)"/>
<path d="M0 0 C0.33 0.99 0.66 1.98 1 3 C3.475 3.495 3.475 3.495 6 4 C6.33 3.34 6.66 2.68 7 2 C9.40119059 5.60178588 9.43771322 8.50866369 9.625 12.6875 C9.66367188 13.38939453 9.70234375 14.09128906 9.7421875 14.81445312 C9.8362334 16.54254655 9.9191968 18.27123675 10 20 C8.02 20.99 8.02 20.99 6 22 C6.33 21.01 6.66 20.02 7 19 C6.5875 19.4125 6.175 19.825 5.75 20.25 C3.83333333 22.16666667 1.91666667 24.08333333 0 26 C-0.33 25.01 -0.66 24.02 -1 23 C-0.34 23 0.32 23 1 23 C1.50266794 20.87562952 2.0020561 18.75048274 2.5 16.625 C2.7784375 15.44164062 3.056875 14.25828125 3.34375 13.0390625 C4.07035776 10.19236158 4.07035776 10.19236158 4 8 C-1.08303686 7.88679144 -1.08303686 7.88679144 -6 9 C-6 9.66 -6 10.32 -6 11 C-6.99 11.33 -7.98 11.66 -9 12 C-10.5 10.625 -10.5 10.625 -12 9 C-12 8.34 -12 7.68 -12 7 C-12.66 7 -13.32 7 -14 7 C-13.42655063 4.13275314 -13.1385485 3.1385485 -11 1 C-7.4080695 -0.33034463 -3.78529987 -0.07279423 0 0 Z " fill="#737983" transform="translate(64,13)"/>
<path d="M0 0 C0.99 0 1.98 0 3 0 C4.02611949 1.65071396 5.02308143 3.31970006 6 5 C8.06954847 6.78344178 8.06954847 6.78344178 10 8 C10.33 6.35 10.66 4.7 11 3 C11.33 4.32 11.66 5.64 12 7 C12.99 7 13.98 7 15 7 C15.12375 6.38125 15.2475 5.7625 15.375 5.125 C16 3 16 3 18 1 C18.99 1 19.98 1 21 1 C21 1.99 21 2.98 21 4 C20.360625 4.103125 19.72125 4.20625 19.0625 4.3125 C18.0415625 4.6528125 18.0415625 4.6528125 17 5 C16.67 5.99 16.34 6.98 16 8 C15.01 8.495 15.01 8.495 14 9 C13.53193355 11.33744294 13.17330206 13.69739079 12.875 16.0625 C12.62363281 17.99802734 12.62363281 17.99802734 12.3671875 19.97265625 C12.24601563 20.97167969 12.12484375 21.97070312 12 23 C12.55945312 23.27070312 13.11890625 23.54140625 13.6953125 23.8203125 C16.15390381 25.07877788 18.50801656 26.45186042 20.875 27.875 C21.75800781 28.4009375 22.64101563 28.926875 23.55078125 29.46875 C26 31 26 31 29.0625 33.375 C33.08672252 35.60116565 36.50120337 35.35990373 41 35 C40.67 35.99 40.34 36.98 40 38 C30.1 38 20.2 38 10 38 C10 37.67 10 37.34 10 37 C11.5823006 36.66179834 13.16589375 36.32964061 14.75 36 C15.63171875 35.814375 16.5134375 35.62875 17.421875 35.4375 C20 35 20 35 24 35 C23.14352003 32.58031369 23.14352003 32.58031369 21 30 C19.36823618 29.31940107 17.72003886 28.67766906 16.0625 28.0625 C12.33337501 26.37977984 11.2266335 25.50616818 9.52734375 21.7109375 C8.85743295 19.25035259 8.25108068 16.771313 7.71875 14.27734375 C7.10659696 11.48605896 6.41726362 9.44966686 5 7 C4.34 7 3.68 7 3 7 C2.01 4.69 1.02 2.38 0 0 Z " fill="#726E7B" transform="translate(2,34)"/>
<path d="M0 0 C2.97 0 5.94 0 9 0 C9 2.97 9 5.94 9 9 C9.99 9 10.98 9 12 9 C12.33 6.69 12.66 4.38 13 2 C13.598125 1.855625 14.19625 1.71125 14.8125 1.5625 C16.56150404 1.1127561 18.28677023 0.57107659 20 0 C20 0.99 20 1.98 20 3 C21.32 3.33 22.64 3.66 24 4 C24 3.34 24 2.68 24 2 C23.34 2 22.68 2 22 2 C22 1.34 22 0.68 22 0 C22.99 0.33 23.98 0.66 25 1 C25.125 3.875 25.125 3.875 25 7 C24.34 7.66 23.68 8.32 23 9 C20.27130593 8.96712417 17.7033382 8.43602229 15 8 C14.690625 8.825 14.38125 9.65 14.0625 10.5 C12 13 12 13 9.83203125 13.3671875 C7.51405742 13.37455785 5.29616938 13.32018298 3 13 C2 12 2 12 1.9375 8.9375 C1.958125 7.968125 1.97875 6.99875 2 6 C1.34 6 0.68 6 0 6 C0 6.99 0 7.98 0 9 C-1.32 8.67 -2.64 8.34 -4 8 C-4.33 6.68 -4.66 5.36 -5 4 C-4.01 3.34 -3.02 2.68 -2 2 C-1.34 2.33 -0.68 2.66 0 3 C0 2.01 0 1.02 0 0 Z " fill="#261B27" transform="translate(23,35)"/>
<path d="M0 0 C0.99 0 1.98 0 3 0 C3 2.64 3 5.28 3 8 C3.66 8 4.32 8 5 8 C5 8.66 5 9.32 5 10 C5.66 10.33 6.32 10.66 7 11 C7.625 13.0625 7.625 13.0625 8 15 C4.07142246 16.85131483 1.01224888 17.22004943 -3.3125 17.125 C-4.38113281 17.10695313 -5.44976562 17.08890625 -6.55078125 17.0703125 C-7.35902344 17.04710938 -8.16726562 17.02390625 -9 17 C-9.08107583 15.06318839 -9.13922475 13.1254066 -9.1875 11.1875 C-9.22230469 10.10855469 -9.25710937 9.02960937 -9.29296875 7.91796875 C-9 5 -9 5 -7.48828125 3.11328125 C-6.99714844 2.74589844 -6.50601563 2.37851562 -6 2 C-5.34 2.33 -4.68 2.66 -4 3 C-3.01 2.67 -2.02 2.34 -1 2 C-0.67 1.34 -0.34 0.68 0 0 Z " fill="#787E87" transform="translate(49,47)"/>
<path d="M0 0 C-0.33 4.95 -0.66 9.9 -1 15 C-9.10273082 15.6046814 -9.10273082 15.6046814 -12.875 13.0625 C-15.52798869 9.23907513 -16.80320245 5.46609816 -18 1 C-17.08476562 1.01160156 -16.16953125 1.02320313 -15.2265625 1.03515625 C-14.03804687 1.04417969 -12.84953125 1.05320313 -11.625 1.0625 C-9.84996094 1.07990234 -9.84996094 1.07990234 -8.0390625 1.09765625 C-4.924006 0.99755803 -3.11520951 0 0 0 Z " fill="#9A9BA6" transform="translate(41,49)"/>
<path d="M0 0 C0.94875 0.04125 1.8975 0.0825 2.875 0.125 C2.875 0.785 2.875 1.445 2.875 2.125 C3.6175 2.16625 4.36 2.2075 5.125 2.25 C9.06610785 3.50398886 10.00615514 5.52574324 11.875 9.125 C12.125 12 12.125 12 11.875 14.125 C10.885 14.455 9.895 14.785 8.875 15.125 C8.875 15.785 8.875 16.445 8.875 17.125 C4.585 17.125 0.295 17.125 -4.125 17.125 C-3.795 16.135 -3.465 15.145 -3.125 14.125 C-1.4234375 14.4034375 -1.4234375 14.4034375 0.3125 14.6875 C1.488125 14.831875 2.66375 14.97625 3.875 15.125 C5.21904775 14.00663776 5.21904775 14.00663776 5 11.125 C5.21904775 8.24336224 5.21904775 8.24336224 3.875 7.125 C2.35571962 7.05320036 0.83332518 7.04107993 -0.6875 7.0625 C-1.92693359 7.07603516 -1.92693359 7.07603516 -3.19140625 7.08984375 C-4.14853516 7.10724609 -4.14853516 7.10724609 -5.125 7.125 C-5.25 4.75 -5.25 4.75 -5.125 2.125 C-3.125 0.125 -3.125 0.125 0 0 Z " fill="#DBDCDF" transform="translate(42.125,27.875)"/>
<path d="M0 0 C0.33 0.66 0.66 1.32 1 2 C5.62 2 10.24 2 15 2 C15.66 3.65 16.32 5.3 17 7 C18.33076989 7.34342449 19.66431979 7.67619874 21 8 C22.75 10.5625 22.75 10.5625 24 13 C23.01 13.33 22.02 13.66 21 14 C20.26676204 16.01508358 20.26676204 16.01508358 20 18 C20 17.34 20 16.68 20 16 C19.34 15.67 18.68 15.34 18 15 C17.67 14.01 17.34 13.02 17 12 C16.34 12 15.68 12 15 12 C15 9.36 15 6.72 15 4 C14.01 4 13.02 4 12 4 C11.67 4.99 11.34 5.98 11 7 C8.05610218 8.17755913 7.10046087 8.03348696 4 7 C2.33157466 7.32441604 0.66519519 7.65939189 -1 8 C-3.33301986 8.03824623 -5.66711508 8.04574284 -8 8 C-8 7.34 -8 6.68 -8 6 C-7.05125 5.7525 -6.1025 5.505 -5.125 5.25 C-1.91306809 4.3142923 -1.91306809 4.3142923 -0.625 1.875 C-0.41875 1.25625 -0.2125 0.6375 0 0 Z " fill="#858C95" transform="translate(37,43)"/>
<path d="M0 0 C4.88199986 1.6916911 8.15830988 4.74351097 11 9 C12.37023318 16.86876553 11.20236785 23.30247625 7 30 C6.67 29.34 6.34 28.68 6 28 C6.33 27.34 6.66 26.68 7 26 C7.09720427 24.06449136 7.12977914 22.12544208 7.125 20.1875 C7.12757812 19.14980469 7.13015625 18.11210937 7.1328125 17.04296875 C7.01076175 14.24657058 6.63363355 11.72060121 6 9 C5.01 8.67 4.02 8.34 3 8 C3 6.68 3 5.36 3 4 C-1.95 3.67 -6.9 3.34 -12 3 C-12 2.34 -12 1.68 -12 1 C-8.28041216 -0.85979392 -4.05907851 -0.4381614 0 0 Z " fill="#A7ADB5" transform="translate(69,9)"/>
<path d="M0 0 C-0.33 0.99 -0.66 1.98 -1 3 C-2.875 3.875 -2.875 3.875 -5 4 C-5.433125 3.525625 -5.86625 3.05125 -6.3125 2.5625 C-8.03283913 0.65153776 -8.03283913 0.65153776 -11.375 0.6875 C-14.79201106 0.98206992 -17.03719132 1.30696647 -20 3 C-21.34410262 5.01735205 -21.34410262 5.01735205 -22 7 C-21.34 7.33 -20.68 7.66 -20 8 C-20.99 8 -21.98 8 -23 8 C-23.33 8.66 -23.66 9.32 -24 10 C-24.66 9.67 -25.32 9.34 -26 9 C-29.08813817 8.96929408 -32.16326365 9.06740576 -35.25 9.16015625 C-38 9 -38 9 -40 7 C-38.35 6.67 -36.7 6.34 -35 6 C-35.66 5.34 -36.32 4.68 -37 4 C-35.80503906 4.08701172 -35.80503906 4.08701172 -34.5859375 4.17578125 C-27.46151771 4.69291478 -27.46151771 4.69291478 -21.375 1.5625 C-20.59125 0.716875 -19.8075 -0.12875 -19 -1 C-13.25329713 -3.87335143 -5.8299724 -1.69599197 0 0 Z " fill="#999EA7" transform="translate(72,13)"/>
<path d="M0 0 C1.45703125 1.01953125 1.45703125 1.01953125 3 3 C3.37644848 5.62939205 3.60133087 8.05072472 3.6875 10.6875 C3.73874023 11.7403418 3.73874023 11.7403418 3.79101562 12.81445312 C3.87329947 14.54241387 3.9383324 16.27118072 4 18 C2.02 18.99 2.02 18.99 0 20 C0.33 19.01 0.66 18.02 1 17 C0.5875 17.4125 0.175 17.825 -0.25 18.25 C-2.16666667 20.16666667 -4.08333333 22.08333333 -6 24 C-6.33 23.01 -6.66 22.02 -7 21 C-6.34 21 -5.68 21 -5 21 C-4.49733206 18.87562952 -3.9979439 16.75048274 -3.5 14.625 C-3.2215625 13.44164062 -2.943125 12.25828125 -2.65625 11.0390625 C-1.92964224 8.19236158 -1.92964224 8.19236158 -2 6 C-4.97 5.505 -4.97 5.505 -8 5 C-6.68 4.34 -5.36 3.68 -4 3 C-4.33 2.34 -4.66 1.68 -5 1 C-3.35 1.33 -1.7 1.66 0 2 C0 1.34 0 0.68 0 0 Z " fill="#7E848E" transform="translate(70,15)"/>
<path d="M0 0 C1.98 0.66 3.96 1.32 6 2 C6 3.98 6 5.96 6 8 C10.455 7.505 10.455 7.505 15 7 C14.67 7.99 14.34 8.98 14 10 C14.66 10 15.32 10 16 10 C16 10.66 16 11.32 16 12 C14.68 11.67 13.36 11.34 12 11 C12 10.01 12 9.02 12 8 C10.35 9.32 8.7 10.64 7 12 C7 11.34 7 10.68 7 10 C6.34 10 5.68 10 5 10 C4.67 12.31 4.34 14.62 4 17 C3.01 17 2.02 17 1 17 C1 14.03 1 11.06 1 8 C-1.31 8 -3.62 8 -6 8 C-5.34 7.01 -4.68 6.02 -4 5 C-1.03 5.495 -1.03 5.495 2 6 C1.34 5.01 0.68 4.02 0 3 C0 2.01 0 1.02 0 0 Z " fill="#6B646C" transform="translate(31,27)"/>
<path d="M0 0 C2.97 0 5.94 0 9 0 C9 2.97 9 5.94 9 9 C9.99 9 10.98 9 12 9 C12.33 6.69 12.66 4.38 13 2 C13.598125 1.855625 14.19625 1.71125 14.8125 1.5625 C16.56150404 1.1127561 18.28677023 0.57107659 20 0 C20 0.99 20 1.98 20 3 C21.32 3.33 22.64 3.66 24 4 C24 3.34 24 2.68 24 2 C23.34 2 22.68 2 22 2 C22 1.34 22 0.68 22 0 C22.99 0.33 23.98 0.66 25 1 C25.125 3.875 25.125 3.875 25 7 C24.34 7.66 23.68 8.32 23 9 C20.27130593 8.96712417 17.7033382 8.43602229 15 8 C13.515 10.475 13.515 10.475 12 13 C11.67 12.01 11.34 11.02 11 10 C10.01 10 9.02 10 8 10 C8 7.03 8 4.06 8 1 C5.36 1.33 2.72 1.66 0 2 C0 1.34 0 0.68 0 0 Z " fill="#4E393D" transform="translate(23,35)"/>
<path d="M0 0 C1.13508688 3.3515741 0.87309359 5.35675676 -0.25 8.6875 C-0.50265625 9.47511719 -0.7553125 10.26273438 -1.015625 11.07421875 C-2 13 -2 13 -5 14 C-6.03612271 12.59447701 -7.05344925 11.17508306 -8.0625 9.75 C-8.63097656 8.96109375 -9.19945312 8.1721875 -9.78515625 7.359375 C-11 5 -11 5 -10.87109375 2.828125 C-8.46894327 -2.21315943 -4.60244583 -0.86838601 0 0 Z " fill="#D0D1D5" transform="translate(68,21)"/>
<path d="M0 0 C0.66 0 1.32 0 2 0 C2.33 1.98 2.66 3.96 3 6 C4.423125 5.938125 4.423125 5.938125 5.875 5.875 C9 6 9 6 11 8 C9.35 8 7.7 8 6 8 C6 8.66 6 9.32 6 10 C3.03 9.505 3.03 9.505 0 9 C0.99 10.485 0.99 10.485 2 12 C2 12.99 2 13.98 2 15 C0.68 15 -0.64 15 -2 15 C-2 14.34 -2 13.68 -2 13 C-2.99 12.67 -3.98 12.34 -5 12 C-6.3125 9.1875 -6.3125 9.1875 -7 6 C-6.125 3.625 -6.125 3.625 -5 2 C-3.35 2.33 -1.7 2.66 0 3 C0 2.01 0 1.02 0 0 Z " fill="#312C3F" transform="translate(23,41)"/>
<path d="M0 0 C8.84295302 0.57986577 8.84295302 0.57986577 12 4 C12 4.99 12 5.98 12 7 C11.0925 7.144375 10.185 7.28875 9.25 7.4375 C8.1775 7.623125 7.105 7.80875 6 8 C5.2575 8.12375 4.515 8.2475 3.75 8.375 C1.60587961 8.94441892 1.60587961 8.94441892 0 12 C-0.33 11.34 -0.66 10.68 -1 10 C-1.66 10 -2.32 10 -3 10 C-2.69201674 8.51988629 -2.378482 7.04092675 -2.0625 5.5625 C-1.88847656 4.73878906 -1.71445313 3.91507813 -1.53515625 3.06640625 C-1 1 -1 1 0 0 Z " fill="#555665" transform="translate(6,15)"/>
<path d="M0 0 C0.99 0 1.98 0 3 0 C5.38413028 6.85437455 5.69819407 13.22975203 4.375 20.375 C2.57685054 23.80783079 0.32839433 25.11873364 -3 27 C-2.855625 26.443125 -2.71125 25.88625 -2.5625 25.3125 C-2.17525384 23.720488 -1.84493358 22.11390616 -1.5625 20.5 C-1 18 -1 18 0.05859375 16.296875 C1.41277637 12.99289418 0.9517942 10.27937736 0.625 6.75 C0.51414062 5.48671875 0.40328125 4.2234375 0.2890625 2.921875 C0.19367188 1.95765625 0.09828125 0.9934375 0 0 Z " fill="#979FA7" transform="translate(72,18)"/>
<path d="M0 0 C0 0.99 0 1.98 0 3 C-1.32 4.32 -2.64 5.64 -4 7 C0.29 7.66 4.58 8.32 9 9 C9 9.33 9 9.66 9 10 C0.75 10 -7.5 10 -16 10 C-13.57576397 5.15152794 -12.39232747 5.03662767 -7.4375 3.3125 C-3.42667019 2.16836104 -3.42667019 2.16836104 0 0 Z " fill="#D5D6DA" transform="translate(58,62)"/>
<path d="M0 0 C0.66 0.33 1.32 0.66 2 1 C2 1.66 2 2.32 2 3 C3.0725 2.62875 4.145 2.2575 5.25 1.875 C9 1 9 1 11.4375 1.875 C11.953125 2.24625 12.46875 2.6175 13 3 C11.625 5.5 11.625 5.5 10 8 C9.34 8 8.68 8 8 8 C7.67 9.65 7.34 11.3 7 13 C4.12470182 11.71107323 1.94991702 10.50703617 0 8 C-0.99822121 4.67259596 -1.11651815 3.34955444 0 0 Z " fill="#504F5E" transform="translate(5,29)"/>
<path d="M0 0 C-0.33 4.29 -0.66 8.58 -1 13 C-2.98 12.01 -4.96 11.02 -7 10 C-7 9.34 -7 8.68 -7 8 C-7.99 7.67 -8.98 7.34 -10 7 C-9.34 6.01 -8.68 5.02 -8 4 C-9.65 4 -11.3 4 -13 4 C-13 3.67 -13 3.34 -13 3 C-11.39743892 2.49487756 -9.79288208 1.99608373 -8.1875 1.5 C-7.29417969 1.2215625 -6.40085937 0.943125 -5.48046875 0.65625 C-3 0 -3 0 0 0 Z " fill="#C7C9CE" transform="translate(41,49)"/>
<path d="M0 0 C2.8203125 0.2421875 2.8203125 0.2421875 6.125 0.875 C7.22070312 1.07867187 8.31640625 1.28234375 9.4453125 1.4921875 C10.28835937 1.65976563 11.13140625 1.82734375 12 2 C11.01 2.33 10.02 2.66 9 3 C9 3.66 9 4.32 9 5 C9.99 4.67 10.98 4.34 12 4 C15 9.75 15 9.75 15 12 C13.35 12 11.7 12 10 12 C10.66 11.67 11.32 11.34 12 11 C11.27916323 7.76550289 11.27916323 7.76550289 8.25 6.3125 C4.20713931 4.65708224 4.20713931 4.65708224 0 5 C-1.8624438 7.40858714 -1.8624438 7.40858714 -3 10 C-3.99 9.67 -4.98 9.34 -6 9 C-2.25 2.25 -2.25 2.25 0 0 Z " fill="#82858F" transform="translate(6,11)"/>
<path d="M0 0 C2.97 0.495 2.97 0.495 6 1 C5.67 1.66 5.34 2.32 5 3 C5.61875 3.12375 6.2375 3.2475 6.875 3.375 C9 4 9 4 11 6 C7.5233662 8.14336161 4.78770805 8.21277626 0.75 8.125 C-0.32765625 8.10695313 -1.4053125 8.08890625 -2.515625 8.0703125 C-3.33546875 8.04710938 -4.1553125 8.02390625 -5 8 C-4.62890625 5.58203125 -4.62890625 5.58203125 -4 3 C-1.9375 1.6875 -1.9375 1.6875 0 1 C0 0.67 0 0.34 0 0 Z " fill="#646571" transform="translate(45,56)"/>
<path d="M0 0 C6.33694304 0.54543328 11.97248245 1.95969616 16.93359375 6.15234375 C17.6796875 8.3203125 17.6796875 8.3203125 17.93359375 10.15234375 C15.95359375 10.15234375 13.97359375 10.15234375 11.93359375 10.15234375 C11.91296875 9.55421875 11.89234375 8.95609375 11.87109375 8.33984375 C11.05143291 5.80811649 11.05143291 5.80811649 7.87109375 4.46484375 C3.93753336 2.96323564 0.11345753 2.51899847 -4.06640625 2.15234375 C-2.06640625 0.15234375 -2.06640625 0.15234375 0 0 Z " fill="#AEB4BB" transform="translate(12.06640625,8.84765625)"/>
<path d="M0 0 C0.66 0 1.32 0 2 0 C1.67 1.32 1.34 2.64 1 4 C0.67 2.68 0.34 1.36 0 0 Z M-1 3 C-0.34 4.32 0.32 5.64 1 7 C1.99 6.67 2.98 6.34 4 6 C5.49852682 10.49558046 6.75335215 14.99106093 5.0625 19.5 C4.711875 19.995 4.36125 20.49 4 21 C1.15947511 17.8044095 1 16.16149108 1 12 C0.484375 11.154375 -0.03125 10.30875 -0.5625 9.4375 C-2 7 -2 7 -1.6875 4.6875 C-1.460625 4.130625 -1.23375 3.57375 -1 3 Z " fill="#9DA6AC" transform="translate(52,25)"/>
<path d="M0 0 C0.47308594 0.3609375 0.94617188 0.721875 1.43359375 1.09375 C6.74279503 4.81950529 10.57324953 5.66945317 17 5 C16.67 5.99 16.34 6.98 16 8 C8.74 8 1.48 8 -6 8 C-6 7.67 -6 7.34 -6 7 C-3.03 7 -0.06 7 3 7 C2.505 6.21625 2.01 5.4325 1.5 4.625 C0 2 0 2 0 0 Z " fill="#656476" transform="translate(26,64)"/>
<path d="M0 0 C0.98484375 0.02707031 1.9696875 0.05414063 2.984375 0.08203125 C3.73203125 0.11683594 4.4796875 0.15164062 5.25 0.1875 C4.92 0.8475 4.59 1.5075 4.25 2.1875 C3.26 2.5175 2.27 2.8475 1.25 3.1875 C2.24 3.1875 3.23 3.1875 4.25 3.1875 C4.25 3.8475 4.25 4.5075 4.25 5.1875 C-3.78501094 6.64045405 -3.78501094 6.64045405 -7.8125 4.75 C-8.451875 4.234375 -9.09125 3.71875 -9.75 3.1875 C-6.47698081 0.21840402 -4.36934238 -0.15604794 0 0 Z " fill="#8C919A" transform="translate(38.75,63.8125)"/>
<path d="M0 0 C0.66 0 1.32 0 2 0 C2.68707555 2.49064888 3 4.37886292 3 7 C2.01 8.485 2.01 8.485 1 10 C-1.32031805 10.41434251 -3.65639085 10.74889902 -6 11 C-6.99 11.495 -6.99 11.495 -8 12 C-6.46920333 8.55570748 -4.38345294 5.90483327 -2 3 C-1.34 2.01 -0.68 1.02 0 0 Z " fill="#878E97" transform="translate(69,32)"/>
<path d="M0 0 C2.31 0 4.62 0 7 0 C6.773125 0.763125 6.54625 1.52625 6.3125 2.3125 C5.70527709 4.95644444 5.70527709 4.95644444 7.125 6.625 C9.33494338 8.24562515 11.61737482 9.64769922 14 11 C11 12 11 12 8.5546875 10.99609375 C1.24894515 6.74683544 1.24894515 6.74683544 -0.125 2.625 C-0.08375 1.75875 -0.0425 0.8925 0 0 Z " fill="#A8A9B3" transform="translate(26,51)"/>
<path d="M0 0 C-1.93439182 2.36425667 -3.06943712 3.02125626 -6.0625 3.9375 C-9.11386081 4.7063828 -9.11386081 4.7063828 -10.375 7.125 C-10.58125 7.74375 -10.7875 8.3625 -11 9 C-11.99 9 -12.98 9 -14 9 C-13.51802657 3.57779886 -13.51802657 3.57779886 -11.375 1.1875 C-7.77957955 -0.61021022 -3.73281731 -1.86640866 0 0 Z " fill="#B6B6BB" transform="translate(28,32)"/>
<path d="M0 0 C0.99 0.33 1.98 0.66 3 1 C3.125 3.875 3.125 3.875 3 7 C1 9 1 9 -1.625 9.125 C-2.40875 9.08375 -3.1925 9.0425 -4 9 C-4.93423645 5.98968256 -5.04449911 5.13349732 -4 2 C-2.02 2.66 -0.04 3.32 2 4 C2 3.34 2 2.68 2 2 C1.34 2 0.68 2 0 2 C0 1.34 0 0.68 0 0 Z " fill="#40201F" transform="translate(45,35)"/>
<path d="M0 0 C6.06892629 -0.25287193 11.16200408 0.30167391 17 2 C16.67 2.99 16.34 3.98 16 5 C14.125 5.875 14.125 5.875 12 6 C11.55785156 5.51144531 11.11570312 5.02289062 10.66015625 4.51953125 C8.46268678 2.50820037 7.23810891 2.68529961 4.3125 2.8125 C3.10013672 2.85310547 3.10013672 2.85310547 1.86328125 2.89453125 C1.24839844 2.92933594 0.63351563 2.96414063 0 3 C0 2.01 0 1.02 0 0 Z " fill="#949CA3" transform="translate(55,11)"/>
<path d="M0 0 C3.625 1.5 3.625 1.5 6 3 C6 3.99 6 4.98 6 6 C4.93072266 5.67515625 4.93072266 5.67515625 3.83984375 5.34375 C-1.61820717 3.75702187 -6.31558966 2.62103931 -12 3 C-12 2.34 -12 1.68 -12 1 C-8.31714676 -0.84142662 -4.02829909 -0.36956872 0 0 Z " fill="#B1B8BF" transform="translate(69,9)"/>
<path d="M0 0 C2.625 0.375 2.625 0.375 5 1 C4.47731534 3.76276177 3.89130413 6.3260876 3 9 C1.0625 8.3125 1.0625 8.3125 -1 7 C-1.875 4.5 -1.875 4.5 -2 2 C-1.34 1.34 -0.68 0.68 0 0 Z " fill="#322F42" transform="translate(9,33)"/>
<path d="M0 0 C1.11375 0.4640625 1.11375 0.4640625 2.25 0.9375 C4.52298743 1.81569969 6.6032517 2.58676753 9 3 C9.66 2.67 10.32 2.34 11 2 C13 4 15 6 17 8 C13.66355676 9.10200041 12.37018526 9.17649543 9.140625 7.63671875 C8.18671875 6.99347656 7.2328125 6.35023437 6.25 5.6875 C5.28578125 5.05199219 4.3215625 4.41648437 3.328125 3.76171875 C1 2 1 2 0 0 Z " fill="#464350" transform="translate(16,57)"/>
<path d="M0 0 C3.33925677 0.45125091 6.11349257 1.24747763 9 3 C9.33 3.66 9.66 4.32 10 5 C8.02 5 6.04 5 4 5 C3.67 5.66 3.34 6.32 3 7 C1.68 6.67 0.36 6.34 -1 6 C-1.042721 4.33388095 -1.04063832 2.66617115 -1 1 C-0.67 0.67 -0.34 0.34 0 0 Z " fill="#828792" transform="translate(9,22)"/>
<path d="M0 0 C2.97 0.495 2.97 0.495 6 1 C5.67 1.66 5.34 2.32 5 3 C5.61875 3.12375 6.2375 3.2475 6.875 3.375 C9 4 9 4 11 6 C9.35 6.66 7.7 7.32 6 8 C5.401875 7.34 4.80375 6.68 4.1875 6 C2.12498166 3.6626154 2.12498166 3.6626154 -1 4 C-0.67 2.68 -0.34 1.36 0 0 Z " fill="#6E717B" transform="translate(45,56)"/>
<path d="M0 0 C0.66 0 1.32 0 2 0 C4.29648649 2.5614657 5 3.47967572 5 7 C-3.415 7.495 -3.415 7.495 -12 8 C-12 7.67 -12 7.34 -12 7 C-10.4176994 6.66179834 -8.83410625 6.32964061 -7.25 6 C-6.36828125 5.814375 -5.4865625 5.62875 -4.578125 5.4375 C-2 5 -2 5 2 5 C1.34 3.35 0.68 1.7 0 0 Z " fill="#9D979F" transform="translate(24,64)"/>
<path d="M0 0 C1.5 1.375 1.5 1.375 3 3 C3 3.66 3 4.32 3 5 C3.66 5.33 4.32 5.66 5 6 C4.34 6 3.68 6 3 6 C3 6.66 3 7.32 3 8 C-1.29 8 -5.58 8 -10 8 C-9.67 7.01 -9.34 6.02 -9 5 C-6.69 5.33 -4.38 5.66 -2 6 C-1.34 4.02 -0.68 2.04 0 0 Z " fill="#C2C0C3" transform="translate(48,37)"/>
<path d="M0 0 C0.66 1.32 1.32 2.64 2 4 C-0.64 4.33 -3.28 4.66 -6 5 C-6.33 5.99 -6.66 6.98 -7 8 C-7.763125 7.690625 -8.52625 7.38125 -9.3125 7.0625 C-11.18789677 6.32106407 -13.08684652 5.63771783 -15 5 C-13.38555822 3.38555822 -11.39224529 3.37328421 -9.1875 2.9375 C-8.31480469 2.76089844 -7.44210938 2.58429687 -6.54296875 2.40234375 C-4 2 -4 2 0 2 C0 1.34 0 0.68 0 0 Z " fill="#9BA3AA" transform="translate(28,19)"/>
<path d="M0 0 C0.99 0 1.98 0 3 0 C3 0.99 3 1.98 3 3 C2.0409375 3.1546875 2.0409375 3.1546875 1.0625 3.3125 C0.381875 3.539375 -0.29875 3.76625 -1 4 C-1.33 4.99 -1.66 5.98 -2 7 C-2.99 7.495 -2.99 7.495 -4 8 C-5.13350534 10.01669827 -5.13350534 10.01669827 -6 12 C-6 10.35 -6 8.7 -6 7 C-6.66 7 -7.32 7 -8 7 C-7.67 5.35 -7.34 3.7 -7 2 C-6.67 3.32 -6.34 4.64 -6 6 C-5.01 6 -4.02 6 -3 6 C-2.814375 5.071875 -2.814375 5.071875 -2.625 4.125 C-2 2 -2 2 0 0 Z " fill="#796361" transform="translate(20,35)"/>
<path d="M0 0 C4.92307692 4.30769231 4.92307692 4.30769231 5.3125 7.8125 C5.209375 8.534375 5.10625 9.25625 5 10 C3.35 9.67 1.7 9.34 0 9 C-0.33 7.02 -0.66 5.04 -1 3 C-0.34 3 0.32 3 1 3 C0.67 2.01 0.34 1.02 0 0 Z " fill="#E3E4E7" transform="translate(49,32)"/>
<path d="M0 0 C0.66 0 1.32 0 2 0 C2.66 2.64 3.32 5.28 4 8 C0.62537285 7.45276317 -1.08235 6.9451 -4 5 C-3.34 5 -2.68 5 -2 5 C-1.7834375 4.0409375 -1.7834375 4.0409375 -1.5625 3.0625 C-1 1 -1 1 0 0 Z " fill="#7B7C84" transform="translate(29,25)"/>
<path d="M0 0 C3.6413205 -0.33102914 5.41472925 -0.42019439 8.4375 1.75 C10 4 10 4 9.75 6.25 C9.5025 6.8275 9.255 7.405 9 8 C8.34 8 7.68 8 7 8 C6.67 7.01 6.34 6.02 6 5 C3.8614515 2.8614515 2.86724686 2.57344937 0 2 C0 1.34 0 0.68 0 0 Z " fill="#7B818A" transform="translate(40,21)"/>
<path d="M0 0 C3 3.625 3 3.625 3 7 C3.515625 7.2475 4.03125 7.495 4.5625 7.75 C7.77184151 9.39581616 10.87585664 11.1976096 14 13 C12 14 12 14 9.6875 13.3203125 C2.53661531 10.13983181 2.53661531 10.13983181 0.8984375 6.66015625 C0.42407232 4.41931179 0.10958368 2.28631399 0 0 Z " fill="#797382" transform="translate(11,50)"/>
<path d="M0 0 C1.65 0.33 3.3 0.66 5 1 C4.01 1.495 4.01 1.495 3 2 C2.70464494 3.96903371 2.41827913 5.94083576 2.21875 7.921875 C1.96640689 10.31913458 1.51487394 12.64629057 1 15 C0.34 15 -0.32 15 -1 15 C-1.18451025 4.44191344 -1.18451025 4.44191344 0 0 Z " fill="#4B4B5C" transform="translate(15,42)"/>
<path d="M0 0 C2.97 0 5.94 0 9 0 C7 4 7 4 5.125 4.6796875 C4.42375 4.74414062 3.7225 4.80859375 3 4.875 C1.948125 4.99488281 1.948125 4.99488281 0.875 5.1171875 C-1 5 -1 5 -3 3 C-1.35 2.67 0.3 2.34 2 2 C1.34 1.34 0.68 0.68 0 0 Z " fill="#A1A8AE" transform="translate(35,17)"/>
<path d="M0 0 C2.125 0.375 2.125 0.375 4 1 C3.67 2.98 3.34 4.96 3 7 C1.68 6.67 0.36 6.34 -1 6 C-1.625 4.125 -1.625 4.125 -2 2 C-1.34 1.34 -0.68 0.68 0 0 Z " fill="#2D1216" transform="translate(20,37)"/>
<path d="M0 0 C1.98 0 3.96 0 6 0 C6 0.66 6 1.32 6 2 C7.65 2.33 9.3 2.66 11 3 C11.33 4.98 11.66 6.96 12 9 C10.66102417 8.04956626 9.32894573 7.08940853 8 6.125 C7.2575 5.59132813 6.515 5.05765625 5.75 4.5078125 C5.1725 4.01023437 4.595 3.51265625 4 3 C4 2.34 4 1.68 4 1 C2.68 0.67 1.36 0.34 0 0 Z " fill="#C5C6CB" transform="translate(39,28)"/>
<path d="M0 0 C0.33 0 0.66 0 1 0 C1.29341888 5.67276511 1.00559652 8.99067246 -2 14 C-2.99 14 -3.98 14 -5 14 C-3.125 8.25 -3.125 8.25 -2 6 C-1.32136945 4.0040278 -0.65358081 2.00431449 0 0 Z " fill="#9FA4AD" transform="translate(67,44)"/>
<path d="M0 0 C2.31 0.33 4.62 0.66 7 1 C8.18771723 4.42943519 7.80226223 6.37784675 6.5625 9.75 C6.27503906 10.54921875 5.98757812 11.3484375 5.69140625 12.171875 C5.46324219 12.77515625 5.23507813 13.3784375 5 14 C4.05164171 11.15492512 3.98572806 9.87934008 4.1875 7 C4.28005058 4.91180549 4.28005058 4.91180549 4 3 C2.15811388 0.94729537 2.15811388 0.94729537 0 0 Z " fill="#ADB0B7" transform="translate(61,20)"/>
<path d="M0 0 C6.50313209 -0.46450943 10.4174808 0.67424388 16 4 C15.01 4.495 15.01 4.495 14 5 C13.01 4.67 12.02 4.34 11 4 C10.67 4.66 10.34 5.32 10 6 C9.01 5.67 8.02 5.34 7 5 C6.67 4.01 6.34 3.02 6 2 C3.03 1.505 3.03 1.505 0 1 C0 0.67 0 0.34 0 0 Z " fill="#9CA5AC" transform="translate(8,11)"/>
<path d="M0 0 C-1.125 2.5 -1.125 2.5 -3 5 C-6.1875 5.3125 -6.1875 5.3125 -9 5 C-7.93411431 2.09303901 -7.29651501 1.15567038 -4.5 -0.3125 C-2 -1 -2 -1 0 0 Z " fill="#C5C6CB" transform="translate(51,67)"/>
<path d="M0 0 C-0.33 0.99 -0.66 1.98 -1 3 C-4.0625 4.1875 -4.0625 4.1875 -7 5 C-7 4.34 -7 3.68 -7 3 C-7.99 3 -8.98 3 -10 3 C-8.0130571 -0.97388579 -3.91761109 -0.08705802 0 0 Z " fill="#8C939B" transform="translate(50,64)"/>
<path d="M0 0 C0.33 0.66 0.66 1.32 1 2 C1.66 2.33 2.32 2.66 3 3 C2.01 3.33 1.02 3.66 0 4 C-0.73323796 6.01508358 -0.73323796 6.01508358 -1 8 C-3.31 8 -5.62 8 -8 8 C-8 7.34 -8 6.68 -8 6 C-7.05125 5.7525 -6.1025 5.505 -5.125 5.25 C-1.91306809 4.3142923 -1.91306809 4.3142923 -0.625 1.875 C-0.41875 1.25625 -0.2125 0.6375 0 0 Z " fill="#70727C" transform="translate(37,43)"/>
<path d="M0 0 C0.78375 0.185625 1.5675 0.37125 2.375 0.5625 C4.97089775 1.25962266 4.97089775 1.25962266 7 0 C6.67 1.98 6.34 3.96 6 6 C4.125 5.8125 4.125 5.8125 2 5 C0.75 2.4375 0.75 2.4375 0 0 Z " fill="#939BA3" transform="translate(51,43)"/>
<path d="M0 0 C0.33 2.97 0.66 5.94 1 9 C-0.32 8.34 -1.64 7.68 -3 7 C-3.75 3.875 -3.75 3.875 -4 1 C-1 0 -1 0 0 0 Z " fill="#DDDFE1" transform="translate(39,53)"/>
<path d="M0 0 C0.66 0 1.32 0 2 0 C2 1.98 2 3.96 2 6 C2.66 6.33 3.32 6.66 4 7 C3.34 8.65 2.68 10.3 2 12 C-0.60018816 8.09971775 -0.15085514 4.52565431 0 0 Z " fill="#888490" transform="translate(0,22)"/>
<path d="M0 0 C0.99 0 1.98 0 3 0 C3.95024979 3.69541586 3.95024979 6.30458414 3 10 C-0.00617269 6.99382731 0.40414684 4.17618402 0 0 Z " fill="#8E979E" transform="translate(72,18)"/>
<path d="M0 0 C1.32 0.33 2.64 0.66 4 1 C4.48828125 3.01822917 4.9765625 5.03645833 5.46484375 7.0546875 C5.94846992 9.0585657 5.94846992 9.0585657 7 11 C6.01 11 5.02 11 4 11 C3.32880451 9.5437455 2.66318193 8.08492133 2 6.625 C1.62875 5.81289063 1.2575 5.00078125 0.875 4.1640625 C0 2 0 2 0 0 Z " fill="#797A8E" transform="translate(23,50)"/>
<path d="M0 0 C1.32 0.66 2.64 1.32 4 2 C2.6875 4.5 2.6875 4.5 1 7 C0.01 7 -0.98 7 -2 7 C-1.125 1.125 -1.125 1.125 0 0 Z " fill="#9F989D" transform="translate(16,34)"/>
<path d="M0 0 C2.6875 0.875 2.6875 0.875 5 2 C3.68 3.65 2.36 5.3 1 7 C1 6.01 1 5.02 1 4 C-0.32 3.34 -1.64 2.68 -3 2 C-2.01 1.34 -1.02 0.68 0 0 Z " fill="#575665" transform="translate(13,30)"/>
<path d="M0 0 C2.31 0.33 4.62 0.66 7 1 C6.67 1.99 6.34 2.98 6 4 C3.69 3.67 1.38 3.34 -1 3 C-0.67 2.01 -0.34 1.02 0 0 Z " fill="#727781" transform="translate(13,26)"/>
<path d="M0 0 C1.65 1.65 3.3 3.3 5 5 C4.360625 5.12375 3.72125 5.2475 3.0625 5.375 C2.0415625 5.684375 2.0415625 5.684375 1 6 C0.67 6.66 0.34 7.32 0 8 C0 7.34 0 6.68 0 6 C-0.66 6 -1.32 6 -2 6 C-1.125 1.125 -1.125 1.125 0 0 Z " fill="#7F858E" transform="translate(42,49)"/>
<path d="M0 0 C1.65 0 3.3 0 5 0 C5 0.66 5 1.32 5 2 C5.66 2.66 6.32 3.32 7 4 C6 5 6 5 3.4375 5.0625 C2.2309375 5.0315625 2.2309375 5.0315625 1 5 C0.67 3.35 0.34 1.7 0 0 Z " fill="#6A6E78" transform="translate(41,23)"/>
<path d="M0 0 C1.2065625 0.0309375 1.2065625 0.0309375 2.4375 0.0625 C1.19203595 3.79889216 -0.19654953 4.25006513 -3.5625 6.0625 C-3.605221 4.39638095 -3.60313832 2.72867115 -3.5625 1.0625 C-2.5625 0.0625 -2.5625 0.0625 0 0 Z " fill="#4C4B5A" transform="translate(8.5625,14.9375)"/>
<path d="M0 0 C2.05078125 0.03255208 4.1015625 0.06510417 6.15234375 0.09765625 C6.15234375 1.08765625 6.15234375 2.07765625 6.15234375 3.09765625 C2.77734375 3.22265625 2.77734375 3.22265625 -0.84765625 3.09765625 C-1.50765625 2.43765625 -2.16765625 1.77765625 -2.84765625 1.09765625 C-1.84765625 0.09765625 -1.84765625 0.09765625 0 0 Z " fill="#717681" transform="translate(44.84765625,49.90234375)"/>
<path d="M0 0 C2.31 0 4.62 0 7 0 C7 2.64 7 5.28 7 8 C6.67 8 6.34 8 6 8 C5.67 6.35 5.34 4.7 5 3 C2.03 2.505 2.03 2.505 -1 2 C-0.67 1.34 -0.34 0.68 0 0 Z " fill="#332933" transform="translate(24,36)"/>
<path d="M0 0 C3.95820859 0.56545837 6.6659053 1.80902348 10 4 C7 5 7 5 5.17578125 4.22265625 C3.45052083 3.1484375 1.72526042 2.07421875 0 1 C0 0.67 0 0.34 0 0 Z " fill="#B5B6BD" transform="translate(30,58)"/>
<path d="M0 0 C0.66 0 1.32 0 2 0 C2.66 1.98 3.32 3.96 4 6 C3.34 6 2.68 6 2 6 C1.67 6.66 1.34 7.32 1 8 C0 7 0 7 -0.0625 3.4375 C-0.041875 2.303125 -0.02125 1.16875 0 0 Z " fill="#1E111D" transform="translate(25,40)"/>
<path d="M0 0 C0.66 0 1.32 0 2 0 C1.67 1.32 1.34 2.64 1 4 C0.67 2.68 0.34 1.36 0 0 Z M-1 3 C0.20628008 5.33214148 1.1654738 7.49642139 2 10 C1.01 10.495 1.01 10.495 0 11 C-1.42944945 8.64561267 -2.08661261 7.51967567 -1.625 4.75 C-1.41875 4.1725 -1.2125 3.595 -1 3 Z " fill="#A3ABB1" transform="translate(52,25)"/>
<path d="M0 0 C1.32 0 2.64 0 4 0 C3.67 1.65 3.34 3.3 3 5 C2.01 5 1.02 5 0 5 C0 3.35 0 1.7 0 0 Z " fill="#E4E5E7" transform="translate(37,30)"/>
<path d="M0 0 C1.32 0 2.64 0 4 0 C4 1.65 4 3.3 4 5 C2.68 4.67 1.36 4.34 0 4 C0 2.68 0 1.36 0 0 Z " fill="#8F919C" transform="translate(8,24)"/>
<path d="M0 0 C1.65 0.33 3.3 0.66 5 1 C4.34 2.65 3.68 4.3 3 6 C1.68 5.34 0.36 4.68 -1 4 C-0.67 2.68 -0.34 1.36 0 0 Z " fill="#5D5F6C" transform="translate(4,21)"/>
<path d="M0 0 C0.66 0.33 1.32 0.66 2 1 C1.67 2.98 1.34 4.96 1 7 C-0.98 6.34 -2.96 5.68 -5 5 C-5 4.34 -5 3.68 -5 3 C-3.68 3 -2.36 3 -1 3 C-0.67 2.01 -0.34 1.02 0 0 Z " fill="#8C939B" transform="translate(50,25)"/>
<path d="M0 0 C2.31 0.33 4.62 0.66 7 1 C6.67 1.99 6.34 2.98 6 4 C4.02 4 2.04 4 0 4 C0 2.68 0 1.36 0 0 Z " fill="#888F97" transform="translate(31,20)"/>
<path d="M0 0 C5.94 0.99 5.94 0.99 12 2 C7.81924919 4.0903754 7.41186737 4.22667078 3.25 3.125 C2.45078125 2.92132813 1.6515625 2.71765625 0.828125 2.5078125 C-0.07679688 2.25644531 -0.07679688 2.25644531 -1 2 C-0.67 1.34 -0.34 0.68 0 0 Z " fill="#9198A0" transform="translate(6,11)"/>
<path d="M0 0 C0.78375 0.04125 1.5675 0.0825 2.375 0.125 C2.375 0.785 2.375 1.445 2.375 2.125 C1.385 2.125 0.395 2.125 -0.625 2.125 C-0.625 2.785 -0.625 3.445 -0.625 4.125 C-1.945 3.465 -3.265 2.805 -4.625 2.125 C-2.625 0.125 -2.625 0.125 0 0 Z " fill="#737780" transform="translate(35.625,63.875)"/>
<path d="M0 0 C3.79557881 0 5.62902617 0.50178941 9 2 C9 2.33 9 2.66 9 3 C6.36 3 3.72 3 1 3 C0.67 2.01 0.34 1.02 0 0 Z " fill="#636773" transform="translate(59,16)"/>
</svg>
